%TF.GenerationSoftware,KiCad,Pcbnew,(5.1.9)-1*%
%TF.CreationDate,2021-05-11T09:52:30+02:00*%
%TF.ProjectId,Driverino-Shield,44726976-6572-4696-9e6f-2d536869656c,rev?*%
%TF.SameCoordinates,Original*%
%TF.FileFunction,Soldermask,Bot*%
%TF.FilePolarity,Negative*%
%FSLAX46Y46*%
G04 Gerber Fmt 4.6, Leading zero omitted, Abs format (unit mm)*
G04 Created by KiCad (PCBNEW (5.1.9)-1) date 2021-05-11 09:52:30*
%MOMM*%
%LPD*%
G01*
G04 APERTURE LIST*
%ADD10C,0.100000*%
%ADD11C,0.740000*%
%ADD12O,1.000000X1.000000*%
%ADD13R,1.000000X1.000000*%
%ADD14C,4.064000*%
%ADD15O,1.727200X2.032000*%
%ADD16R,1.950000X1.950000*%
%ADD17C,1.950000*%
%ADD18O,1.300000X0.800000*%
G04 APERTURE END LIST*
D10*
%TO.C,U1*%
G36*
X124398000Y-102465000D02*
G01*
X124398000Y-98665000D01*
X130198000Y-98665000D01*
X130198000Y-102465000D01*
X124398000Y-102465000D01*
G37*
X124398000Y-102465000D02*
X124398000Y-98665000D01*
X130198000Y-98665000D01*
X130198000Y-102465000D01*
X124398000Y-102465000D01*
%TD*%
D11*
%TO.C,U1*%
X127298000Y-101190000D03*
X127298000Y-99940000D03*
X127298000Y-98965000D03*
X127298000Y-102165000D03*
X128648000Y-101190000D03*
X128648000Y-99940000D03*
X128648000Y-98965000D03*
X128648000Y-102165000D03*
X129898000Y-101190000D03*
X129898000Y-99940000D03*
X125948000Y-101190000D03*
X125948000Y-99940000D03*
X125948000Y-98965000D03*
X125948000Y-102165000D03*
X124698000Y-101190000D03*
X124698000Y-99940000D03*
%TD*%
D12*
%TO.C,JP1*%
X122268000Y-106045000D03*
X120998000Y-106045000D03*
D13*
X119728000Y-106045000D03*
%TD*%
D14*
%TO.C,P5*%
X124968000Y-123825000D03*
%TD*%
%TO.C,P7*%
X126238000Y-75565000D03*
%TD*%
%TO.C,P8*%
X177038000Y-90805000D03*
%TD*%
D15*
%TO.C,P3*%
X129794000Y-75565000D03*
X132334000Y-75565000D03*
X134874000Y-75565000D03*
X137414000Y-75565000D03*
X139954000Y-75565000D03*
X142494000Y-75565000D03*
X145034000Y-75565000D03*
X147574000Y-75565000D03*
X150114000Y-75565000D03*
X152654000Y-75565000D03*
%TD*%
D14*
%TO.C,P6*%
X177038000Y-118745000D03*
%TD*%
D15*
%TO.C,P1*%
X138938000Y-123825000D03*
X141478000Y-123825000D03*
X144018000Y-123825000D03*
X146558000Y-123825000D03*
X149098000Y-123825000D03*
X151638000Y-123825000D03*
X154178000Y-123825000D03*
X156718000Y-123825000D03*
%TD*%
%TO.C,P2*%
X161798000Y-123825000D03*
X164338000Y-123825000D03*
X166878000Y-123825000D03*
X169418000Y-123825000D03*
X171958000Y-123825000D03*
X174498000Y-123825000D03*
%TD*%
%TO.C,P4*%
X156718000Y-75565000D03*
X159258000Y-75565000D03*
X161798000Y-75565000D03*
X164338000Y-75565000D03*
X166878000Y-75565000D03*
X169418000Y-75565000D03*
X171958000Y-75565000D03*
X174498000Y-75565000D03*
%TD*%
D16*
%TO.C,P9*%
X115633500Y-91565000D03*
D17*
X115633500Y-94105000D03*
%TD*%
%TO.C,P10*%
X115633500Y-98025000D03*
X115633500Y-100565000D03*
X115633500Y-103105000D03*
%TD*%
D18*
%TO.C,P11*%
X116147500Y-108215000D03*
X116147500Y-109465000D03*
X116147500Y-110715000D03*
X116147500Y-111965000D03*
X116147500Y-113215000D03*
X116147500Y-114465000D03*
X116147500Y-115715000D03*
G36*
G01*
X116597500Y-117365000D02*
X115697500Y-117365000D01*
G75*
G02*
X115497500Y-117165000I0J200000D01*
G01*
X115497500Y-116765000D01*
G75*
G02*
X115697500Y-116565000I200000J0D01*
G01*
X116597500Y-116565000D01*
G75*
G02*
X116797500Y-116765000I0J-200000D01*
G01*
X116797500Y-117165000D01*
G75*
G02*
X116597500Y-117365000I-200000J0D01*
G01*
G37*
%TD*%
D13*
%TO.C,JP2*%
X149098000Y-118349000D03*
D12*
X149098000Y-119619000D03*
%TD*%
M02*
