%TF.GenerationSoftware,KiCad,Pcbnew,(5.1.9)-1*%
%TF.CreationDate,2021-05-11T09:52:30+02:00*%
%TF.ProjectId,Driverino-Shield,44726976-6572-4696-9e6f-2d536869656c,rev?*%
%TF.SameCoordinates,Original*%
%TF.FileFunction,Paste,Top*%
%TF.FilePolarity,Positive*%
%FSLAX46Y46*%
G04 Gerber Fmt 4.6, Leading zero omitted, Abs format (unit mm)*
G04 Created by KiCad (PCBNEW (5.1.9)-1) date 2021-05-11 09:52:30*
%MOMM*%
%LPD*%
G01*
G04 APERTURE LIST*
%ADD10C,0.100000*%
%ADD11O,1.727200X2.032000*%
G04 APERTURE END LIST*
D10*
%TO.C,U1*%
G36*
X128898000Y-101065000D02*
G01*
X128898000Y-100065000D01*
X129898000Y-100065000D01*
X129898000Y-101065000D01*
X128898000Y-101065000D01*
G37*
X128898000Y-101065000D02*
X128898000Y-100065000D01*
X129898000Y-100065000D01*
X129898000Y-101065000D01*
X128898000Y-101065000D01*
G36*
X128898000Y-99765000D02*
G01*
X128898000Y-98765000D01*
X129898000Y-98765000D01*
X129898000Y-99765000D01*
X128898000Y-99765000D01*
G37*
X128898000Y-99765000D02*
X128898000Y-98765000D01*
X129898000Y-98765000D01*
X129898000Y-99765000D01*
X128898000Y-99765000D01*
G36*
X128898000Y-102365000D02*
G01*
X128898000Y-101365000D01*
X129898000Y-101365000D01*
X129898000Y-102365000D01*
X128898000Y-102365000D01*
G37*
X128898000Y-102365000D02*
X128898000Y-101365000D01*
X129898000Y-101365000D01*
X129898000Y-102365000D01*
X128898000Y-102365000D01*
G36*
X127498000Y-102365000D02*
G01*
X127498000Y-101365000D01*
X128498000Y-101365000D01*
X128498000Y-102365000D01*
X127498000Y-102365000D01*
G37*
X127498000Y-102365000D02*
X127498000Y-101365000D01*
X128498000Y-101365000D01*
X128498000Y-102365000D01*
X127498000Y-102365000D01*
G36*
X127498000Y-101065000D02*
G01*
X127498000Y-100065000D01*
X128498000Y-100065000D01*
X128498000Y-101065000D01*
X127498000Y-101065000D01*
G37*
X127498000Y-101065000D02*
X127498000Y-100065000D01*
X128498000Y-100065000D01*
X128498000Y-101065000D01*
X127498000Y-101065000D01*
G36*
X127498000Y-99765000D02*
G01*
X127498000Y-98765000D01*
X128498000Y-98765000D01*
X128498000Y-99765000D01*
X127498000Y-99765000D01*
G37*
X127498000Y-99765000D02*
X127498000Y-98765000D01*
X128498000Y-98765000D01*
X128498000Y-99765000D01*
X127498000Y-99765000D01*
G36*
X126098000Y-102365000D02*
G01*
X126098000Y-101365000D01*
X127098000Y-101365000D01*
X127098000Y-102365000D01*
X126098000Y-102365000D01*
G37*
X126098000Y-102365000D02*
X126098000Y-101365000D01*
X127098000Y-101365000D01*
X127098000Y-102365000D01*
X126098000Y-102365000D01*
G36*
X126098000Y-101065000D02*
G01*
X126098000Y-100065000D01*
X127098000Y-100065000D01*
X127098000Y-101065000D01*
X126098000Y-101065000D01*
G37*
X126098000Y-101065000D02*
X126098000Y-100065000D01*
X127098000Y-100065000D01*
X127098000Y-101065000D01*
X126098000Y-101065000D01*
G36*
X126098000Y-99765000D02*
G01*
X126098000Y-98765000D01*
X127098000Y-98765000D01*
X127098000Y-99765000D01*
X126098000Y-99765000D01*
G37*
X126098000Y-99765000D02*
X126098000Y-98765000D01*
X127098000Y-98765000D01*
X127098000Y-99765000D01*
X126098000Y-99765000D01*
G36*
X124698000Y-102365000D02*
G01*
X124698000Y-101365000D01*
X125698000Y-101365000D01*
X125698000Y-102365000D01*
X124698000Y-102365000D01*
G37*
X124698000Y-102365000D02*
X124698000Y-101365000D01*
X125698000Y-101365000D01*
X125698000Y-102365000D01*
X124698000Y-102365000D01*
G36*
X124698000Y-99765000D02*
G01*
X124698000Y-98765000D01*
X125698000Y-98765000D01*
X125698000Y-99765000D01*
X124698000Y-99765000D01*
G37*
X124698000Y-99765000D02*
X124698000Y-98765000D01*
X125698000Y-98765000D01*
X125698000Y-99765000D01*
X124698000Y-99765000D01*
G36*
X124698000Y-101065000D02*
G01*
X124698000Y-100065000D01*
X125698000Y-100065000D01*
X125698000Y-101065000D01*
X124698000Y-101065000D01*
G37*
X124698000Y-101065000D02*
X124698000Y-100065000D01*
X125698000Y-100065000D01*
X125698000Y-101065000D01*
X124698000Y-101065000D01*
%TD*%
%TO.C,F1*%
G36*
G01*
X133241000Y-93614500D02*
X133241000Y-93959500D01*
G75*
G02*
X133093500Y-94107000I-147500J0D01*
G01*
X132798500Y-94107000D01*
G75*
G02*
X132651000Y-93959500I0J147500D01*
G01*
X132651000Y-93614500D01*
G75*
G02*
X132798500Y-93467000I147500J0D01*
G01*
X133093500Y-93467000D01*
G75*
G02*
X133241000Y-93614500I0J-147500D01*
G01*
G37*
G36*
G01*
X132271000Y-93614500D02*
X132271000Y-93959500D01*
G75*
G02*
X132123500Y-94107000I-147500J0D01*
G01*
X131828500Y-94107000D01*
G75*
G02*
X131681000Y-93959500I0J147500D01*
G01*
X131681000Y-93614500D01*
G75*
G02*
X131828500Y-93467000I147500J0D01*
G01*
X132123500Y-93467000D01*
G75*
G02*
X132271000Y-93614500I0J-147500D01*
G01*
G37*
%TD*%
%TO.C,R23*%
G36*
G01*
X120537500Y-115988500D02*
X120537500Y-115643500D01*
G75*
G02*
X120685000Y-115496000I147500J0D01*
G01*
X120980000Y-115496000D01*
G75*
G02*
X121127500Y-115643500I0J-147500D01*
G01*
X121127500Y-115988500D01*
G75*
G02*
X120980000Y-116136000I-147500J0D01*
G01*
X120685000Y-116136000D01*
G75*
G02*
X120537500Y-115988500I0J147500D01*
G01*
G37*
G36*
G01*
X119567500Y-115988500D02*
X119567500Y-115643500D01*
G75*
G02*
X119715000Y-115496000I147500J0D01*
G01*
X120010000Y-115496000D01*
G75*
G02*
X120157500Y-115643500I0J-147500D01*
G01*
X120157500Y-115988500D01*
G75*
G02*
X120010000Y-116136000I-147500J0D01*
G01*
X119715000Y-116136000D01*
G75*
G02*
X119567500Y-115988500I0J147500D01*
G01*
G37*
%TD*%
%TO.C,R22*%
G36*
G01*
X120537500Y-115018500D02*
X120537500Y-114673500D01*
G75*
G02*
X120685000Y-114526000I147500J0D01*
G01*
X120980000Y-114526000D01*
G75*
G02*
X121127500Y-114673500I0J-147500D01*
G01*
X121127500Y-115018500D01*
G75*
G02*
X120980000Y-115166000I-147500J0D01*
G01*
X120685000Y-115166000D01*
G75*
G02*
X120537500Y-115018500I0J147500D01*
G01*
G37*
G36*
G01*
X119567500Y-115018500D02*
X119567500Y-114673500D01*
G75*
G02*
X119715000Y-114526000I147500J0D01*
G01*
X120010000Y-114526000D01*
G75*
G02*
X120157500Y-114673500I0J-147500D01*
G01*
X120157500Y-115018500D01*
G75*
G02*
X120010000Y-115166000I-147500J0D01*
G01*
X119715000Y-115166000D01*
G75*
G02*
X119567500Y-115018500I0J147500D01*
G01*
G37*
%TD*%
%TO.C,U1*%
G36*
G01*
X129923000Y-98415000D02*
X129923000Y-97915000D01*
G75*
G02*
X129973000Y-97865000I50000J0D01*
G01*
X130123000Y-97865000D01*
G75*
G02*
X130173000Y-97915000I0J-50000D01*
G01*
X130173000Y-98415000D01*
G75*
G02*
X130123000Y-98465000I-50000J0D01*
G01*
X129973000Y-98465000D01*
G75*
G02*
X129923000Y-98415000I0J50000D01*
G01*
G37*
G36*
G01*
X129423000Y-98415000D02*
X129423000Y-97915000D01*
G75*
G02*
X129473000Y-97865000I50000J0D01*
G01*
X129623000Y-97865000D01*
G75*
G02*
X129673000Y-97915000I0J-50000D01*
G01*
X129673000Y-98415000D01*
G75*
G02*
X129623000Y-98465000I-50000J0D01*
G01*
X129473000Y-98465000D01*
G75*
G02*
X129423000Y-98415000I0J50000D01*
G01*
G37*
G36*
G01*
X128923000Y-98415000D02*
X128923000Y-97915000D01*
G75*
G02*
X128973000Y-97865000I50000J0D01*
G01*
X129123000Y-97865000D01*
G75*
G02*
X129173000Y-97915000I0J-50000D01*
G01*
X129173000Y-98415000D01*
G75*
G02*
X129123000Y-98465000I-50000J0D01*
G01*
X128973000Y-98465000D01*
G75*
G02*
X128923000Y-98415000I0J50000D01*
G01*
G37*
G36*
G01*
X128423000Y-98415000D02*
X128423000Y-97915000D01*
G75*
G02*
X128473000Y-97865000I50000J0D01*
G01*
X128623000Y-97865000D01*
G75*
G02*
X128673000Y-97915000I0J-50000D01*
G01*
X128673000Y-98415000D01*
G75*
G02*
X128623000Y-98465000I-50000J0D01*
G01*
X128473000Y-98465000D01*
G75*
G02*
X128423000Y-98415000I0J50000D01*
G01*
G37*
G36*
G01*
X127923000Y-98415000D02*
X127923000Y-97915000D01*
G75*
G02*
X127973000Y-97865000I50000J0D01*
G01*
X128123000Y-97865000D01*
G75*
G02*
X128173000Y-97915000I0J-50000D01*
G01*
X128173000Y-98415000D01*
G75*
G02*
X128123000Y-98465000I-50000J0D01*
G01*
X127973000Y-98465000D01*
G75*
G02*
X127923000Y-98415000I0J50000D01*
G01*
G37*
G36*
G01*
X127423000Y-98415000D02*
X127423000Y-97915000D01*
G75*
G02*
X127473000Y-97865000I50000J0D01*
G01*
X127623000Y-97865000D01*
G75*
G02*
X127673000Y-97915000I0J-50000D01*
G01*
X127673000Y-98415000D01*
G75*
G02*
X127623000Y-98465000I-50000J0D01*
G01*
X127473000Y-98465000D01*
G75*
G02*
X127423000Y-98415000I0J50000D01*
G01*
G37*
G36*
G01*
X126923000Y-98415000D02*
X126923000Y-97915000D01*
G75*
G02*
X126973000Y-97865000I50000J0D01*
G01*
X127123000Y-97865000D01*
G75*
G02*
X127173000Y-97915000I0J-50000D01*
G01*
X127173000Y-98415000D01*
G75*
G02*
X127123000Y-98465000I-50000J0D01*
G01*
X126973000Y-98465000D01*
G75*
G02*
X126923000Y-98415000I0J50000D01*
G01*
G37*
G36*
G01*
X126423000Y-98415000D02*
X126423000Y-97915000D01*
G75*
G02*
X126473000Y-97865000I50000J0D01*
G01*
X126623000Y-97865000D01*
G75*
G02*
X126673000Y-97915000I0J-50000D01*
G01*
X126673000Y-98415000D01*
G75*
G02*
X126623000Y-98465000I-50000J0D01*
G01*
X126473000Y-98465000D01*
G75*
G02*
X126423000Y-98415000I0J50000D01*
G01*
G37*
G36*
G01*
X125923000Y-98415000D02*
X125923000Y-97915000D01*
G75*
G02*
X125973000Y-97865000I50000J0D01*
G01*
X126123000Y-97865000D01*
G75*
G02*
X126173000Y-97915000I0J-50000D01*
G01*
X126173000Y-98415000D01*
G75*
G02*
X126123000Y-98465000I-50000J0D01*
G01*
X125973000Y-98465000D01*
G75*
G02*
X125923000Y-98415000I0J50000D01*
G01*
G37*
G36*
G01*
X125423000Y-98415000D02*
X125423000Y-97915000D01*
G75*
G02*
X125473000Y-97865000I50000J0D01*
G01*
X125623000Y-97865000D01*
G75*
G02*
X125673000Y-97915000I0J-50000D01*
G01*
X125673000Y-98415000D01*
G75*
G02*
X125623000Y-98465000I-50000J0D01*
G01*
X125473000Y-98465000D01*
G75*
G02*
X125423000Y-98415000I0J50000D01*
G01*
G37*
G36*
G01*
X124923000Y-98415000D02*
X124923000Y-97915000D01*
G75*
G02*
X124973000Y-97865000I50000J0D01*
G01*
X125123000Y-97865000D01*
G75*
G02*
X125173000Y-97915000I0J-50000D01*
G01*
X125173000Y-98415000D01*
G75*
G02*
X125123000Y-98465000I-50000J0D01*
G01*
X124973000Y-98465000D01*
G75*
G02*
X124923000Y-98415000I0J50000D01*
G01*
G37*
G36*
G01*
X124423000Y-98415000D02*
X124423000Y-97915000D01*
G75*
G02*
X124473000Y-97865000I50000J0D01*
G01*
X124623000Y-97865000D01*
G75*
G02*
X124673000Y-97915000I0J-50000D01*
G01*
X124673000Y-98415000D01*
G75*
G02*
X124623000Y-98465000I-50000J0D01*
G01*
X124473000Y-98465000D01*
G75*
G02*
X124423000Y-98415000I0J50000D01*
G01*
G37*
G36*
G01*
X124148000Y-98940000D02*
X123648000Y-98940000D01*
G75*
G02*
X123598000Y-98890000I0J50000D01*
G01*
X123598000Y-98740000D01*
G75*
G02*
X123648000Y-98690000I50000J0D01*
G01*
X124148000Y-98690000D01*
G75*
G02*
X124198000Y-98740000I0J-50000D01*
G01*
X124198000Y-98890000D01*
G75*
G02*
X124148000Y-98940000I-50000J0D01*
G01*
G37*
G36*
G01*
X124148000Y-99440000D02*
X123648000Y-99440000D01*
G75*
G02*
X123598000Y-99390000I0J50000D01*
G01*
X123598000Y-99240000D01*
G75*
G02*
X123648000Y-99190000I50000J0D01*
G01*
X124148000Y-99190000D01*
G75*
G02*
X124198000Y-99240000I0J-50000D01*
G01*
X124198000Y-99390000D01*
G75*
G02*
X124148000Y-99440000I-50000J0D01*
G01*
G37*
G36*
G01*
X124148000Y-99940000D02*
X123648000Y-99940000D01*
G75*
G02*
X123598000Y-99890000I0J50000D01*
G01*
X123598000Y-99740000D01*
G75*
G02*
X123648000Y-99690000I50000J0D01*
G01*
X124148000Y-99690000D01*
G75*
G02*
X124198000Y-99740000I0J-50000D01*
G01*
X124198000Y-99890000D01*
G75*
G02*
X124148000Y-99940000I-50000J0D01*
G01*
G37*
G36*
G01*
X124148000Y-100440000D02*
X123648000Y-100440000D01*
G75*
G02*
X123598000Y-100390000I0J50000D01*
G01*
X123598000Y-100240000D01*
G75*
G02*
X123648000Y-100190000I50000J0D01*
G01*
X124148000Y-100190000D01*
G75*
G02*
X124198000Y-100240000I0J-50000D01*
G01*
X124198000Y-100390000D01*
G75*
G02*
X124148000Y-100440000I-50000J0D01*
G01*
G37*
G36*
G01*
X124148000Y-100940000D02*
X123648000Y-100940000D01*
G75*
G02*
X123598000Y-100890000I0J50000D01*
G01*
X123598000Y-100740000D01*
G75*
G02*
X123648000Y-100690000I50000J0D01*
G01*
X124148000Y-100690000D01*
G75*
G02*
X124198000Y-100740000I0J-50000D01*
G01*
X124198000Y-100890000D01*
G75*
G02*
X124148000Y-100940000I-50000J0D01*
G01*
G37*
G36*
G01*
X124148000Y-101440000D02*
X123648000Y-101440000D01*
G75*
G02*
X123598000Y-101390000I0J50000D01*
G01*
X123598000Y-101240000D01*
G75*
G02*
X123648000Y-101190000I50000J0D01*
G01*
X124148000Y-101190000D01*
G75*
G02*
X124198000Y-101240000I0J-50000D01*
G01*
X124198000Y-101390000D01*
G75*
G02*
X124148000Y-101440000I-50000J0D01*
G01*
G37*
G36*
G01*
X124148000Y-101940000D02*
X123648000Y-101940000D01*
G75*
G02*
X123598000Y-101890000I0J50000D01*
G01*
X123598000Y-101740000D01*
G75*
G02*
X123648000Y-101690000I50000J0D01*
G01*
X124148000Y-101690000D01*
G75*
G02*
X124198000Y-101740000I0J-50000D01*
G01*
X124198000Y-101890000D01*
G75*
G02*
X124148000Y-101940000I-50000J0D01*
G01*
G37*
G36*
G01*
X124148000Y-102440000D02*
X123648000Y-102440000D01*
G75*
G02*
X123598000Y-102390000I0J50000D01*
G01*
X123598000Y-102240000D01*
G75*
G02*
X123648000Y-102190000I50000J0D01*
G01*
X124148000Y-102190000D01*
G75*
G02*
X124198000Y-102240000I0J-50000D01*
G01*
X124198000Y-102390000D01*
G75*
G02*
X124148000Y-102440000I-50000J0D01*
G01*
G37*
G36*
G01*
X124423000Y-103215000D02*
X124423000Y-102715000D01*
G75*
G02*
X124473000Y-102665000I50000J0D01*
G01*
X124623000Y-102665000D01*
G75*
G02*
X124673000Y-102715000I0J-50000D01*
G01*
X124673000Y-103215000D01*
G75*
G02*
X124623000Y-103265000I-50000J0D01*
G01*
X124473000Y-103265000D01*
G75*
G02*
X124423000Y-103215000I0J50000D01*
G01*
G37*
G36*
G01*
X124923000Y-103215000D02*
X124923000Y-102715000D01*
G75*
G02*
X124973000Y-102665000I50000J0D01*
G01*
X125123000Y-102665000D01*
G75*
G02*
X125173000Y-102715000I0J-50000D01*
G01*
X125173000Y-103215000D01*
G75*
G02*
X125123000Y-103265000I-50000J0D01*
G01*
X124973000Y-103265000D01*
G75*
G02*
X124923000Y-103215000I0J50000D01*
G01*
G37*
G36*
G01*
X125423000Y-103215000D02*
X125423000Y-102715000D01*
G75*
G02*
X125473000Y-102665000I50000J0D01*
G01*
X125623000Y-102665000D01*
G75*
G02*
X125673000Y-102715000I0J-50000D01*
G01*
X125673000Y-103215000D01*
G75*
G02*
X125623000Y-103265000I-50000J0D01*
G01*
X125473000Y-103265000D01*
G75*
G02*
X125423000Y-103215000I0J50000D01*
G01*
G37*
G36*
G01*
X125923000Y-103215000D02*
X125923000Y-102715000D01*
G75*
G02*
X125973000Y-102665000I50000J0D01*
G01*
X126123000Y-102665000D01*
G75*
G02*
X126173000Y-102715000I0J-50000D01*
G01*
X126173000Y-103215000D01*
G75*
G02*
X126123000Y-103265000I-50000J0D01*
G01*
X125973000Y-103265000D01*
G75*
G02*
X125923000Y-103215000I0J50000D01*
G01*
G37*
G36*
G01*
X126423000Y-103215000D02*
X126423000Y-102715000D01*
G75*
G02*
X126473000Y-102665000I50000J0D01*
G01*
X126623000Y-102665000D01*
G75*
G02*
X126673000Y-102715000I0J-50000D01*
G01*
X126673000Y-103215000D01*
G75*
G02*
X126623000Y-103265000I-50000J0D01*
G01*
X126473000Y-103265000D01*
G75*
G02*
X126423000Y-103215000I0J50000D01*
G01*
G37*
G36*
G01*
X126923000Y-103215000D02*
X126923000Y-102715000D01*
G75*
G02*
X126973000Y-102665000I50000J0D01*
G01*
X127123000Y-102665000D01*
G75*
G02*
X127173000Y-102715000I0J-50000D01*
G01*
X127173000Y-103215000D01*
G75*
G02*
X127123000Y-103265000I-50000J0D01*
G01*
X126973000Y-103265000D01*
G75*
G02*
X126923000Y-103215000I0J50000D01*
G01*
G37*
G36*
G01*
X127423000Y-103215000D02*
X127423000Y-102715000D01*
G75*
G02*
X127473000Y-102665000I50000J0D01*
G01*
X127623000Y-102665000D01*
G75*
G02*
X127673000Y-102715000I0J-50000D01*
G01*
X127673000Y-103215000D01*
G75*
G02*
X127623000Y-103265000I-50000J0D01*
G01*
X127473000Y-103265000D01*
G75*
G02*
X127423000Y-103215000I0J50000D01*
G01*
G37*
G36*
G01*
X127923000Y-103215000D02*
X127923000Y-102715000D01*
G75*
G02*
X127973000Y-102665000I50000J0D01*
G01*
X128123000Y-102665000D01*
G75*
G02*
X128173000Y-102715000I0J-50000D01*
G01*
X128173000Y-103215000D01*
G75*
G02*
X128123000Y-103265000I-50000J0D01*
G01*
X127973000Y-103265000D01*
G75*
G02*
X127923000Y-103215000I0J50000D01*
G01*
G37*
G36*
G01*
X128423000Y-103215000D02*
X128423000Y-102715000D01*
G75*
G02*
X128473000Y-102665000I50000J0D01*
G01*
X128623000Y-102665000D01*
G75*
G02*
X128673000Y-102715000I0J-50000D01*
G01*
X128673000Y-103215000D01*
G75*
G02*
X128623000Y-103265000I-50000J0D01*
G01*
X128473000Y-103265000D01*
G75*
G02*
X128423000Y-103215000I0J50000D01*
G01*
G37*
G36*
G01*
X128923000Y-103215000D02*
X128923000Y-102715000D01*
G75*
G02*
X128973000Y-102665000I50000J0D01*
G01*
X129123000Y-102665000D01*
G75*
G02*
X129173000Y-102715000I0J-50000D01*
G01*
X129173000Y-103215000D01*
G75*
G02*
X129123000Y-103265000I-50000J0D01*
G01*
X128973000Y-103265000D01*
G75*
G02*
X128923000Y-103215000I0J50000D01*
G01*
G37*
G36*
G01*
X129423000Y-103215000D02*
X129423000Y-102715000D01*
G75*
G02*
X129473000Y-102665000I50000J0D01*
G01*
X129623000Y-102665000D01*
G75*
G02*
X129673000Y-102715000I0J-50000D01*
G01*
X129673000Y-103215000D01*
G75*
G02*
X129623000Y-103265000I-50000J0D01*
G01*
X129473000Y-103265000D01*
G75*
G02*
X129423000Y-103215000I0J50000D01*
G01*
G37*
G36*
G01*
X129923000Y-103215000D02*
X129923000Y-102715000D01*
G75*
G02*
X129973000Y-102665000I50000J0D01*
G01*
X130123000Y-102665000D01*
G75*
G02*
X130173000Y-102715000I0J-50000D01*
G01*
X130173000Y-103215000D01*
G75*
G02*
X130123000Y-103265000I-50000J0D01*
G01*
X129973000Y-103265000D01*
G75*
G02*
X129923000Y-103215000I0J50000D01*
G01*
G37*
G36*
G01*
X130948000Y-102440000D02*
X130448000Y-102440000D01*
G75*
G02*
X130398000Y-102390000I0J50000D01*
G01*
X130398000Y-102240000D01*
G75*
G02*
X130448000Y-102190000I50000J0D01*
G01*
X130948000Y-102190000D01*
G75*
G02*
X130998000Y-102240000I0J-50000D01*
G01*
X130998000Y-102390000D01*
G75*
G02*
X130948000Y-102440000I-50000J0D01*
G01*
G37*
G36*
G01*
X130948000Y-101940000D02*
X130448000Y-101940000D01*
G75*
G02*
X130398000Y-101890000I0J50000D01*
G01*
X130398000Y-101740000D01*
G75*
G02*
X130448000Y-101690000I50000J0D01*
G01*
X130948000Y-101690000D01*
G75*
G02*
X130998000Y-101740000I0J-50000D01*
G01*
X130998000Y-101890000D01*
G75*
G02*
X130948000Y-101940000I-50000J0D01*
G01*
G37*
G36*
G01*
X130948000Y-101440000D02*
X130448000Y-101440000D01*
G75*
G02*
X130398000Y-101390000I0J50000D01*
G01*
X130398000Y-101240000D01*
G75*
G02*
X130448000Y-101190000I50000J0D01*
G01*
X130948000Y-101190000D01*
G75*
G02*
X130998000Y-101240000I0J-50000D01*
G01*
X130998000Y-101390000D01*
G75*
G02*
X130948000Y-101440000I-50000J0D01*
G01*
G37*
G36*
G01*
X130948000Y-100940000D02*
X130448000Y-100940000D01*
G75*
G02*
X130398000Y-100890000I0J50000D01*
G01*
X130398000Y-100740000D01*
G75*
G02*
X130448000Y-100690000I50000J0D01*
G01*
X130948000Y-100690000D01*
G75*
G02*
X130998000Y-100740000I0J-50000D01*
G01*
X130998000Y-100890000D01*
G75*
G02*
X130948000Y-100940000I-50000J0D01*
G01*
G37*
G36*
G01*
X130948000Y-100440000D02*
X130448000Y-100440000D01*
G75*
G02*
X130398000Y-100390000I0J50000D01*
G01*
X130398000Y-100240000D01*
G75*
G02*
X130448000Y-100190000I50000J0D01*
G01*
X130948000Y-100190000D01*
G75*
G02*
X130998000Y-100240000I0J-50000D01*
G01*
X130998000Y-100390000D01*
G75*
G02*
X130948000Y-100440000I-50000J0D01*
G01*
G37*
G36*
G01*
X130948000Y-99940000D02*
X130448000Y-99940000D01*
G75*
G02*
X130398000Y-99890000I0J50000D01*
G01*
X130398000Y-99740000D01*
G75*
G02*
X130448000Y-99690000I50000J0D01*
G01*
X130948000Y-99690000D01*
G75*
G02*
X130998000Y-99740000I0J-50000D01*
G01*
X130998000Y-99890000D01*
G75*
G02*
X130948000Y-99940000I-50000J0D01*
G01*
G37*
G36*
G01*
X130948000Y-99440000D02*
X130448000Y-99440000D01*
G75*
G02*
X130398000Y-99390000I0J50000D01*
G01*
X130398000Y-99240000D01*
G75*
G02*
X130448000Y-99190000I50000J0D01*
G01*
X130948000Y-99190000D01*
G75*
G02*
X130998000Y-99240000I0J-50000D01*
G01*
X130998000Y-99390000D01*
G75*
G02*
X130948000Y-99440000I-50000J0D01*
G01*
G37*
G36*
G01*
X130948000Y-98940000D02*
X130448000Y-98940000D01*
G75*
G02*
X130398000Y-98890000I0J50000D01*
G01*
X130398000Y-98740000D01*
G75*
G02*
X130448000Y-98690000I50000J0D01*
G01*
X130948000Y-98690000D01*
G75*
G02*
X130998000Y-98740000I0J-50000D01*
G01*
X130998000Y-98890000D01*
G75*
G02*
X130948000Y-98940000I-50000J0D01*
G01*
G37*
%TD*%
%TO.C,C3*%
G36*
G01*
X123074000Y-95265001D02*
X123074000Y-93964999D01*
G75*
G02*
X123323999Y-93715000I249999J0D01*
G01*
X123974001Y-93715000D01*
G75*
G02*
X124224000Y-93964999I0J-249999D01*
G01*
X124224000Y-95265001D01*
G75*
G02*
X123974001Y-95515000I-249999J0D01*
G01*
X123323999Y-95515000D01*
G75*
G02*
X123074000Y-95265001I0J249999D01*
G01*
G37*
G36*
G01*
X120124000Y-95265001D02*
X120124000Y-93964999D01*
G75*
G02*
X120373999Y-93715000I249999J0D01*
G01*
X121024001Y-93715000D01*
G75*
G02*
X121274000Y-93964999I0J-249999D01*
G01*
X121274000Y-95265001D01*
G75*
G02*
X121024001Y-95515000I-249999J0D01*
G01*
X120373999Y-95515000D01*
G75*
G02*
X120124000Y-95265001I0J249999D01*
G01*
G37*
%TD*%
%TO.C,C4*%
G36*
G01*
X123136000Y-96690000D02*
X123136000Y-96350000D01*
G75*
G02*
X123276000Y-96210000I140000J0D01*
G01*
X123556000Y-96210000D01*
G75*
G02*
X123696000Y-96350000I0J-140000D01*
G01*
X123696000Y-96690000D01*
G75*
G02*
X123556000Y-96830000I-140000J0D01*
G01*
X123276000Y-96830000D01*
G75*
G02*
X123136000Y-96690000I0J140000D01*
G01*
G37*
G36*
G01*
X122176000Y-96690000D02*
X122176000Y-96350000D01*
G75*
G02*
X122316000Y-96210000I140000J0D01*
G01*
X122596000Y-96210000D01*
G75*
G02*
X122736000Y-96350000I0J-140000D01*
G01*
X122736000Y-96690000D01*
G75*
G02*
X122596000Y-96830000I-140000J0D01*
G01*
X122316000Y-96830000D01*
G75*
G02*
X122176000Y-96690000I0J140000D01*
G01*
G37*
%TD*%
D11*
%TO.C,P3*%
X129794000Y-75565000D03*
X132334000Y-75565000D03*
X134874000Y-75565000D03*
X137414000Y-75565000D03*
X139954000Y-75565000D03*
X142494000Y-75565000D03*
X145034000Y-75565000D03*
X147574000Y-75565000D03*
X150114000Y-75565000D03*
X152654000Y-75565000D03*
%TD*%
%TO.C,P1*%
X138938000Y-123825000D03*
X141478000Y-123825000D03*
X144018000Y-123825000D03*
X146558000Y-123825000D03*
X149098000Y-123825000D03*
X151638000Y-123825000D03*
X154178000Y-123825000D03*
X156718000Y-123825000D03*
%TD*%
%TO.C,P2*%
X161798000Y-123825000D03*
X164338000Y-123825000D03*
X166878000Y-123825000D03*
X169418000Y-123825000D03*
X171958000Y-123825000D03*
X174498000Y-123825000D03*
%TD*%
%TO.C,P4*%
X156718000Y-75565000D03*
X159258000Y-75565000D03*
X161798000Y-75565000D03*
X164338000Y-75565000D03*
X166878000Y-75565000D03*
X169418000Y-75565000D03*
X171958000Y-75565000D03*
X174498000Y-75565000D03*
%TD*%
%TO.C,C6*%
G36*
G01*
X126982000Y-96203000D02*
X126637000Y-96203000D01*
G75*
G02*
X126489500Y-96055500I0J147500D01*
G01*
X126489500Y-95760500D01*
G75*
G02*
X126637000Y-95613000I147500J0D01*
G01*
X126982000Y-95613000D01*
G75*
G02*
X127129500Y-95760500I0J-147500D01*
G01*
X127129500Y-96055500D01*
G75*
G02*
X126982000Y-96203000I-147500J0D01*
G01*
G37*
G36*
G01*
X126982000Y-97173000D02*
X126637000Y-97173000D01*
G75*
G02*
X126489500Y-97025500I0J147500D01*
G01*
X126489500Y-96730500D01*
G75*
G02*
X126637000Y-96583000I147500J0D01*
G01*
X126982000Y-96583000D01*
G75*
G02*
X127129500Y-96730500I0J-147500D01*
G01*
X127129500Y-97025500D01*
G75*
G02*
X126982000Y-97173000I-147500J0D01*
G01*
G37*
%TD*%
%TO.C,C12*%
G36*
G01*
X118520000Y-115141000D02*
X118175000Y-115141000D01*
G75*
G02*
X118027500Y-114993500I0J147500D01*
G01*
X118027500Y-114698500D01*
G75*
G02*
X118175000Y-114551000I147500J0D01*
G01*
X118520000Y-114551000D01*
G75*
G02*
X118667500Y-114698500I0J-147500D01*
G01*
X118667500Y-114993500D01*
G75*
G02*
X118520000Y-115141000I-147500J0D01*
G01*
G37*
G36*
G01*
X118520000Y-116111000D02*
X118175000Y-116111000D01*
G75*
G02*
X118027500Y-115963500I0J147500D01*
G01*
X118027500Y-115668500D01*
G75*
G02*
X118175000Y-115521000I147500J0D01*
G01*
X118520000Y-115521000D01*
G75*
G02*
X118667500Y-115668500I0J-147500D01*
G01*
X118667500Y-115963500D01*
G75*
G02*
X118520000Y-116111000I-147500J0D01*
G01*
G37*
%TD*%
%TO.C,R21*%
G36*
G01*
X120537500Y-113234500D02*
X120537500Y-112889500D01*
G75*
G02*
X120685000Y-112742000I147500J0D01*
G01*
X120980000Y-112742000D01*
G75*
G02*
X121127500Y-112889500I0J-147500D01*
G01*
X121127500Y-113234500D01*
G75*
G02*
X120980000Y-113382000I-147500J0D01*
G01*
X120685000Y-113382000D01*
G75*
G02*
X120537500Y-113234500I0J147500D01*
G01*
G37*
G36*
G01*
X119567500Y-113234500D02*
X119567500Y-112889500D01*
G75*
G02*
X119715000Y-112742000I147500J0D01*
G01*
X120010000Y-112742000D01*
G75*
G02*
X120157500Y-112889500I0J-147500D01*
G01*
X120157500Y-113234500D01*
G75*
G02*
X120010000Y-113382000I-147500J0D01*
G01*
X119715000Y-113382000D01*
G75*
G02*
X119567500Y-113234500I0J147500D01*
G01*
G37*
%TD*%
%TO.C,R20*%
G36*
G01*
X120537500Y-112264500D02*
X120537500Y-111919500D01*
G75*
G02*
X120685000Y-111772000I147500J0D01*
G01*
X120980000Y-111772000D01*
G75*
G02*
X121127500Y-111919500I0J-147500D01*
G01*
X121127500Y-112264500D01*
G75*
G02*
X120980000Y-112412000I-147500J0D01*
G01*
X120685000Y-112412000D01*
G75*
G02*
X120537500Y-112264500I0J147500D01*
G01*
G37*
G36*
G01*
X119567500Y-112264500D02*
X119567500Y-111919500D01*
G75*
G02*
X119715000Y-111772000I147500J0D01*
G01*
X120010000Y-111772000D01*
G75*
G02*
X120157500Y-111919500I0J-147500D01*
G01*
X120157500Y-112264500D01*
G75*
G02*
X120010000Y-112412000I-147500J0D01*
G01*
X119715000Y-112412000D01*
G75*
G02*
X119567500Y-112264500I0J147500D01*
G01*
G37*
%TD*%
%TO.C,C11*%
G36*
G01*
X118520000Y-112387000D02*
X118175000Y-112387000D01*
G75*
G02*
X118027500Y-112239500I0J147500D01*
G01*
X118027500Y-111944500D01*
G75*
G02*
X118175000Y-111797000I147500J0D01*
G01*
X118520000Y-111797000D01*
G75*
G02*
X118667500Y-111944500I0J-147500D01*
G01*
X118667500Y-112239500D01*
G75*
G02*
X118520000Y-112387000I-147500J0D01*
G01*
G37*
G36*
G01*
X118520000Y-113357000D02*
X118175000Y-113357000D01*
G75*
G02*
X118027500Y-113209500I0J147500D01*
G01*
X118027500Y-112914500D01*
G75*
G02*
X118175000Y-112767000I147500J0D01*
G01*
X118520000Y-112767000D01*
G75*
G02*
X118667500Y-112914500I0J-147500D01*
G01*
X118667500Y-113209500D01*
G75*
G02*
X118520000Y-113357000I-147500J0D01*
G01*
G37*
%TD*%
%TO.C,R18*%
G36*
G01*
X120537500Y-109510500D02*
X120537500Y-109165500D01*
G75*
G02*
X120685000Y-109018000I147500J0D01*
G01*
X120980000Y-109018000D01*
G75*
G02*
X121127500Y-109165500I0J-147500D01*
G01*
X121127500Y-109510500D01*
G75*
G02*
X120980000Y-109658000I-147500J0D01*
G01*
X120685000Y-109658000D01*
G75*
G02*
X120537500Y-109510500I0J147500D01*
G01*
G37*
G36*
G01*
X119567500Y-109510500D02*
X119567500Y-109165500D01*
G75*
G02*
X119715000Y-109018000I147500J0D01*
G01*
X120010000Y-109018000D01*
G75*
G02*
X120157500Y-109165500I0J-147500D01*
G01*
X120157500Y-109510500D01*
G75*
G02*
X120010000Y-109658000I-147500J0D01*
G01*
X119715000Y-109658000D01*
G75*
G02*
X119567500Y-109510500I0J147500D01*
G01*
G37*
%TD*%
%TO.C,R19*%
G36*
G01*
X120537500Y-110480500D02*
X120537500Y-110135500D01*
G75*
G02*
X120685000Y-109988000I147500J0D01*
G01*
X120980000Y-109988000D01*
G75*
G02*
X121127500Y-110135500I0J-147500D01*
G01*
X121127500Y-110480500D01*
G75*
G02*
X120980000Y-110628000I-147500J0D01*
G01*
X120685000Y-110628000D01*
G75*
G02*
X120537500Y-110480500I0J147500D01*
G01*
G37*
G36*
G01*
X119567500Y-110480500D02*
X119567500Y-110135500D01*
G75*
G02*
X119715000Y-109988000I147500J0D01*
G01*
X120010000Y-109988000D01*
G75*
G02*
X120157500Y-110135500I0J-147500D01*
G01*
X120157500Y-110480500D01*
G75*
G02*
X120010000Y-110628000I-147500J0D01*
G01*
X119715000Y-110628000D01*
G75*
G02*
X119567500Y-110480500I0J147500D01*
G01*
G37*
%TD*%
%TO.C,C10*%
G36*
G01*
X118520000Y-109633000D02*
X118175000Y-109633000D01*
G75*
G02*
X118027500Y-109485500I0J147500D01*
G01*
X118027500Y-109190500D01*
G75*
G02*
X118175000Y-109043000I147500J0D01*
G01*
X118520000Y-109043000D01*
G75*
G02*
X118667500Y-109190500I0J-147500D01*
G01*
X118667500Y-109485500D01*
G75*
G02*
X118520000Y-109633000I-147500J0D01*
G01*
G37*
G36*
G01*
X118520000Y-110603000D02*
X118175000Y-110603000D01*
G75*
G02*
X118027500Y-110455500I0J147500D01*
G01*
X118027500Y-110160500D01*
G75*
G02*
X118175000Y-110013000I147500J0D01*
G01*
X118520000Y-110013000D01*
G75*
G02*
X118667500Y-110160500I0J-147500D01*
G01*
X118667500Y-110455500D01*
G75*
G02*
X118520000Y-110603000I-147500J0D01*
G01*
G37*
%TD*%
%TO.C,C1*%
G36*
G01*
X129449400Y-91353401D02*
X129449400Y-90053399D01*
G75*
G02*
X129699399Y-89803400I249999J0D01*
G01*
X130349401Y-89803400D01*
G75*
G02*
X130599400Y-90053399I0J-249999D01*
G01*
X130599400Y-91353401D01*
G75*
G02*
X130349401Y-91603400I-249999J0D01*
G01*
X129699399Y-91603400D01*
G75*
G02*
X129449400Y-91353401I0J249999D01*
G01*
G37*
G36*
G01*
X126499400Y-91353850D02*
X126499400Y-90052950D01*
G75*
G02*
X126748950Y-89803400I249550J0D01*
G01*
X127399850Y-89803400D01*
G75*
G02*
X127649400Y-90052950I0J-249550D01*
G01*
X127649400Y-91353850D01*
G75*
G02*
X127399850Y-91603400I-249550J0D01*
G01*
X126748950Y-91603400D01*
G75*
G02*
X126499400Y-91353850I0J249550D01*
G01*
G37*
%TD*%
%TO.C,C2*%
G36*
G01*
X123764000Y-85302000D02*
X123764000Y-86402000D01*
G75*
G02*
X123514000Y-86652000I-250000J0D01*
G01*
X120514000Y-86652000D01*
G75*
G02*
X120264000Y-86402000I0J250000D01*
G01*
X120264000Y-85302000D01*
G75*
G02*
X120514000Y-85052000I250000J0D01*
G01*
X123514000Y-85052000D01*
G75*
G02*
X123764000Y-85302000I0J-250000D01*
G01*
G37*
G36*
G01*
X129164000Y-85302000D02*
X129164000Y-86402000D01*
G75*
G02*
X128914000Y-86652000I-250000J0D01*
G01*
X125914000Y-86652000D01*
G75*
G02*
X125664000Y-86402000I0J250000D01*
G01*
X125664000Y-85302000D01*
G75*
G02*
X125914000Y-85052000I250000J0D01*
G01*
X128914000Y-85052000D01*
G75*
G02*
X129164000Y-85302000I0J-250000D01*
G01*
G37*
%TD*%
%TO.C,C5*%
G36*
G01*
X125599000Y-96221000D02*
X125099000Y-96221000D01*
G75*
G02*
X124874000Y-95996000I0J225000D01*
G01*
X124874000Y-95546000D01*
G75*
G02*
X125099000Y-95321000I225000J0D01*
G01*
X125599000Y-95321000D01*
G75*
G02*
X125824000Y-95546000I0J-225000D01*
G01*
X125824000Y-95996000D01*
G75*
G02*
X125599000Y-96221000I-225000J0D01*
G01*
G37*
G36*
G01*
X125599000Y-94671000D02*
X125099000Y-94671000D01*
G75*
G02*
X124874000Y-94446000I0J225000D01*
G01*
X124874000Y-93996000D01*
G75*
G02*
X125099000Y-93771000I225000J0D01*
G01*
X125599000Y-93771000D01*
G75*
G02*
X125824000Y-93996000I0J-225000D01*
G01*
X125824000Y-94446000D01*
G75*
G02*
X125599000Y-94671000I-225000J0D01*
G01*
G37*
%TD*%
%TO.C,C7*%
G36*
G01*
X126298000Y-106624000D02*
X126798000Y-106624000D01*
G75*
G02*
X127023000Y-106849000I0J-225000D01*
G01*
X127023000Y-107299000D01*
G75*
G02*
X126798000Y-107524000I-225000J0D01*
G01*
X126298000Y-107524000D01*
G75*
G02*
X126073000Y-107299000I0J225000D01*
G01*
X126073000Y-106849000D01*
G75*
G02*
X126298000Y-106624000I225000J0D01*
G01*
G37*
G36*
G01*
X126298000Y-105074000D02*
X126798000Y-105074000D01*
G75*
G02*
X127023000Y-105299000I0J-225000D01*
G01*
X127023000Y-105749000D01*
G75*
G02*
X126798000Y-105974000I-225000J0D01*
G01*
X126298000Y-105974000D01*
G75*
G02*
X126073000Y-105749000I0J225000D01*
G01*
X126073000Y-105299000D01*
G75*
G02*
X126298000Y-105074000I225000J0D01*
G01*
G37*
%TD*%
%TO.C,C8*%
G36*
G01*
X135441500Y-87852000D02*
X134941500Y-87852000D01*
G75*
G02*
X134716500Y-87627000I0J225000D01*
G01*
X134716500Y-87177000D01*
G75*
G02*
X134941500Y-86952000I225000J0D01*
G01*
X135441500Y-86952000D01*
G75*
G02*
X135666500Y-87177000I0J-225000D01*
G01*
X135666500Y-87627000D01*
G75*
G02*
X135441500Y-87852000I-225000J0D01*
G01*
G37*
G36*
G01*
X135441500Y-86302000D02*
X134941500Y-86302000D01*
G75*
G02*
X134716500Y-86077000I0J225000D01*
G01*
X134716500Y-85627000D01*
G75*
G02*
X134941500Y-85402000I225000J0D01*
G01*
X135441500Y-85402000D01*
G75*
G02*
X135666500Y-85627000I0J-225000D01*
G01*
X135666500Y-86077000D01*
G75*
G02*
X135441500Y-86302000I-225000J0D01*
G01*
G37*
%TD*%
%TO.C,C9*%
G36*
G01*
X160397000Y-120224000D02*
X159897000Y-120224000D01*
G75*
G02*
X159672000Y-119999000I0J225000D01*
G01*
X159672000Y-119549000D01*
G75*
G02*
X159897000Y-119324000I225000J0D01*
G01*
X160397000Y-119324000D01*
G75*
G02*
X160622000Y-119549000I0J-225000D01*
G01*
X160622000Y-119999000D01*
G75*
G02*
X160397000Y-120224000I-225000J0D01*
G01*
G37*
G36*
G01*
X160397000Y-118674000D02*
X159897000Y-118674000D01*
G75*
G02*
X159672000Y-118449000I0J225000D01*
G01*
X159672000Y-117999000D01*
G75*
G02*
X159897000Y-117774000I225000J0D01*
G01*
X160397000Y-117774000D01*
G75*
G02*
X160622000Y-117999000I0J-225000D01*
G01*
X160622000Y-118449000D01*
G75*
G02*
X160397000Y-118674000I-225000J0D01*
G01*
G37*
%TD*%
%TO.C,D1*%
G36*
G01*
X169436500Y-95730250D02*
X169436500Y-96242750D01*
G75*
G02*
X169217750Y-96461500I-218750J0D01*
G01*
X168780250Y-96461500D01*
G75*
G02*
X168561500Y-96242750I0J218750D01*
G01*
X168561500Y-95730250D01*
G75*
G02*
X168780250Y-95511500I218750J0D01*
G01*
X169217750Y-95511500D01*
G75*
G02*
X169436500Y-95730250I0J-218750D01*
G01*
G37*
G36*
G01*
X167861500Y-95730250D02*
X167861500Y-96242750D01*
G75*
G02*
X167642750Y-96461500I-218750J0D01*
G01*
X167205250Y-96461500D01*
G75*
G02*
X166986500Y-96242750I0J218750D01*
G01*
X166986500Y-95730250D01*
G75*
G02*
X167205250Y-95511500I218750J0D01*
G01*
X167642750Y-95511500D01*
G75*
G02*
X167861500Y-95730250I0J-218750D01*
G01*
G37*
%TD*%
%TO.C,D2*%
G36*
G01*
X167854000Y-93530750D02*
X167854000Y-94043250D01*
G75*
G02*
X167635250Y-94262000I-218750J0D01*
G01*
X167197750Y-94262000D01*
G75*
G02*
X166979000Y-94043250I0J218750D01*
G01*
X166979000Y-93530750D01*
G75*
G02*
X167197750Y-93312000I218750J0D01*
G01*
X167635250Y-93312000D01*
G75*
G02*
X167854000Y-93530750I0J-218750D01*
G01*
G37*
G36*
G01*
X169429000Y-93530750D02*
X169429000Y-94043250D01*
G75*
G02*
X169210250Y-94262000I-218750J0D01*
G01*
X168772750Y-94262000D01*
G75*
G02*
X168554000Y-94043250I0J218750D01*
G01*
X168554000Y-93530750D01*
G75*
G02*
X168772750Y-93312000I218750J0D01*
G01*
X169210250Y-93312000D01*
G75*
G02*
X169429000Y-93530750I0J-218750D01*
G01*
G37*
%TD*%
%TO.C,D3*%
G36*
G01*
X134072000Y-81868250D02*
X134072000Y-82380750D01*
G75*
G02*
X133853250Y-82599500I-218750J0D01*
G01*
X133415750Y-82599500D01*
G75*
G02*
X133197000Y-82380750I0J218750D01*
G01*
X133197000Y-81868250D01*
G75*
G02*
X133415750Y-81649500I218750J0D01*
G01*
X133853250Y-81649500D01*
G75*
G02*
X134072000Y-81868250I0J-218750D01*
G01*
G37*
G36*
G01*
X135647000Y-81868250D02*
X135647000Y-82380750D01*
G75*
G02*
X135428250Y-82599500I-218750J0D01*
G01*
X134990750Y-82599500D01*
G75*
G02*
X134772000Y-82380750I0J218750D01*
G01*
X134772000Y-81868250D01*
G75*
G02*
X134990750Y-81649500I218750J0D01*
G01*
X135428250Y-81649500D01*
G75*
G02*
X135647000Y-81868250I0J-218750D01*
G01*
G37*
%TD*%
%TO.C,D4*%
G36*
G01*
X169429000Y-103693250D02*
X169429000Y-104205750D01*
G75*
G02*
X169210250Y-104424500I-218750J0D01*
G01*
X168772750Y-104424500D01*
G75*
G02*
X168554000Y-104205750I0J218750D01*
G01*
X168554000Y-103693250D01*
G75*
G02*
X168772750Y-103474500I218750J0D01*
G01*
X169210250Y-103474500D01*
G75*
G02*
X169429000Y-103693250I0J-218750D01*
G01*
G37*
G36*
G01*
X167854000Y-103693250D02*
X167854000Y-104205750D01*
G75*
G02*
X167635250Y-104424500I-218750J0D01*
G01*
X167197750Y-104424500D01*
G75*
G02*
X166979000Y-104205750I0J218750D01*
G01*
X166979000Y-103693250D01*
G75*
G02*
X167197750Y-103474500I218750J0D01*
G01*
X167635250Y-103474500D01*
G75*
G02*
X167854000Y-103693250I0J-218750D01*
G01*
G37*
%TD*%
%TO.C,D5*%
G36*
G01*
X133860250Y-87864500D02*
X133347750Y-87864500D01*
G75*
G02*
X133129000Y-87645750I0J218750D01*
G01*
X133129000Y-87208250D01*
G75*
G02*
X133347750Y-86989500I218750J0D01*
G01*
X133860250Y-86989500D01*
G75*
G02*
X134079000Y-87208250I0J-218750D01*
G01*
X134079000Y-87645750D01*
G75*
G02*
X133860250Y-87864500I-218750J0D01*
G01*
G37*
G36*
G01*
X133860250Y-86289500D02*
X133347750Y-86289500D01*
G75*
G02*
X133129000Y-86070750I0J218750D01*
G01*
X133129000Y-85633250D01*
G75*
G02*
X133347750Y-85414500I218750J0D01*
G01*
X133860250Y-85414500D01*
G75*
G02*
X134079000Y-85633250I0J-218750D01*
G01*
X134079000Y-86070750D01*
G75*
G02*
X133860250Y-86289500I-218750J0D01*
G01*
G37*
%TD*%
%TO.C,L1*%
G36*
G01*
X130573000Y-92458000D02*
X130573000Y-94608000D01*
G75*
G02*
X130323000Y-94858000I-250000J0D01*
G01*
X129573000Y-94858000D01*
G75*
G02*
X129323000Y-94608000I0J250000D01*
G01*
X129323000Y-92458000D01*
G75*
G02*
X129573000Y-92208000I250000J0D01*
G01*
X130323000Y-92208000D01*
G75*
G02*
X130573000Y-92458000I0J-250000D01*
G01*
G37*
G36*
G01*
X127773000Y-92458000D02*
X127773000Y-94608000D01*
G75*
G02*
X127523000Y-94858000I-250000J0D01*
G01*
X126773000Y-94858000D01*
G75*
G02*
X126523000Y-94608000I0J250000D01*
G01*
X126523000Y-92458000D01*
G75*
G02*
X126773000Y-92208000I250000J0D01*
G01*
X127523000Y-92208000D01*
G75*
G02*
X127773000Y-92458000I0J-250000D01*
G01*
G37*
%TD*%
%TO.C,R1*%
G36*
G01*
X165348000Y-96242750D02*
X165348000Y-95730250D01*
G75*
G02*
X165566750Y-95511500I218750J0D01*
G01*
X166004250Y-95511500D01*
G75*
G02*
X166223000Y-95730250I0J-218750D01*
G01*
X166223000Y-96242750D01*
G75*
G02*
X166004250Y-96461500I-218750J0D01*
G01*
X165566750Y-96461500D01*
G75*
G02*
X165348000Y-96242750I0J218750D01*
G01*
G37*
G36*
G01*
X163773000Y-96242750D02*
X163773000Y-95730250D01*
G75*
G02*
X163991750Y-95511500I218750J0D01*
G01*
X164429250Y-95511500D01*
G75*
G02*
X164648000Y-95730250I0J-218750D01*
G01*
X164648000Y-96242750D01*
G75*
G02*
X164429250Y-96461500I-218750J0D01*
G01*
X163991750Y-96461500D01*
G75*
G02*
X163773000Y-96242750I0J218750D01*
G01*
G37*
%TD*%
%TO.C,R2*%
G36*
G01*
X133030250Y-95549000D02*
X133542750Y-95549000D01*
G75*
G02*
X133761500Y-95767750I0J-218750D01*
G01*
X133761500Y-96205250D01*
G75*
G02*
X133542750Y-96424000I-218750J0D01*
G01*
X133030250Y-96424000D01*
G75*
G02*
X132811500Y-96205250I0J218750D01*
G01*
X132811500Y-95767750D01*
G75*
G02*
X133030250Y-95549000I218750J0D01*
G01*
G37*
G36*
G01*
X133030250Y-97124000D02*
X133542750Y-97124000D01*
G75*
G02*
X133761500Y-97342750I0J-218750D01*
G01*
X133761500Y-97780250D01*
G75*
G02*
X133542750Y-97999000I-218750J0D01*
G01*
X133030250Y-97999000D01*
G75*
G02*
X132811500Y-97780250I0J218750D01*
G01*
X132811500Y-97342750D01*
G75*
G02*
X133030250Y-97124000I218750J0D01*
G01*
G37*
%TD*%
%TO.C,R3*%
G36*
G01*
X163773000Y-94043250D02*
X163773000Y-93530750D01*
G75*
G02*
X163991750Y-93312000I218750J0D01*
G01*
X164429250Y-93312000D01*
G75*
G02*
X164648000Y-93530750I0J-218750D01*
G01*
X164648000Y-94043250D01*
G75*
G02*
X164429250Y-94262000I-218750J0D01*
G01*
X163991750Y-94262000D01*
G75*
G02*
X163773000Y-94043250I0J218750D01*
G01*
G37*
G36*
G01*
X165348000Y-94043250D02*
X165348000Y-93530750D01*
G75*
G02*
X165566750Y-93312000I218750J0D01*
G01*
X166004250Y-93312000D01*
G75*
G02*
X166223000Y-93530750I0J-218750D01*
G01*
X166223000Y-94043250D01*
G75*
G02*
X166004250Y-94262000I-218750J0D01*
G01*
X165566750Y-94262000D01*
G75*
G02*
X165348000Y-94043250I0J218750D01*
G01*
G37*
%TD*%
%TO.C,R4*%
G36*
G01*
X131538000Y-82380750D02*
X131538000Y-81868250D01*
G75*
G02*
X131756750Y-81649500I218750J0D01*
G01*
X132194250Y-81649500D01*
G75*
G02*
X132413000Y-81868250I0J-218750D01*
G01*
X132413000Y-82380750D01*
G75*
G02*
X132194250Y-82599500I-218750J0D01*
G01*
X131756750Y-82599500D01*
G75*
G02*
X131538000Y-82380750I0J218750D01*
G01*
G37*
G36*
G01*
X129963000Y-82380750D02*
X129963000Y-81868250D01*
G75*
G02*
X130181750Y-81649500I218750J0D01*
G01*
X130619250Y-81649500D01*
G75*
G02*
X130838000Y-81868250I0J-218750D01*
G01*
X130838000Y-82380750D01*
G75*
G02*
X130619250Y-82599500I-218750J0D01*
G01*
X130181750Y-82599500D01*
G75*
G02*
X129963000Y-82380750I0J218750D01*
G01*
G37*
%TD*%
%TO.C,R5*%
G36*
G01*
X163773000Y-104205750D02*
X163773000Y-103693250D01*
G75*
G02*
X163991750Y-103474500I218750J0D01*
G01*
X164429250Y-103474500D01*
G75*
G02*
X164648000Y-103693250I0J-218750D01*
G01*
X164648000Y-104205750D01*
G75*
G02*
X164429250Y-104424500I-218750J0D01*
G01*
X163991750Y-104424500D01*
G75*
G02*
X163773000Y-104205750I0J218750D01*
G01*
G37*
G36*
G01*
X165348000Y-104205750D02*
X165348000Y-103693250D01*
G75*
G02*
X165566750Y-103474500I218750J0D01*
G01*
X166004250Y-103474500D01*
G75*
G02*
X166223000Y-103693250I0J-218750D01*
G01*
X166223000Y-104205750D01*
G75*
G02*
X166004250Y-104424500I-218750J0D01*
G01*
X165566750Y-104424500D01*
G75*
G02*
X165348000Y-104205750I0J218750D01*
G01*
G37*
%TD*%
%TO.C,R6*%
G36*
G01*
X140481500Y-81663250D02*
X140481500Y-81150750D01*
G75*
G02*
X140700250Y-80932000I218750J0D01*
G01*
X141137750Y-80932000D01*
G75*
G02*
X141356500Y-81150750I0J-218750D01*
G01*
X141356500Y-81663250D01*
G75*
G02*
X141137750Y-81882000I-218750J0D01*
G01*
X140700250Y-81882000D01*
G75*
G02*
X140481500Y-81663250I0J218750D01*
G01*
G37*
G36*
G01*
X142056500Y-81663250D02*
X142056500Y-81150750D01*
G75*
G02*
X142275250Y-80932000I218750J0D01*
G01*
X142712750Y-80932000D01*
G75*
G02*
X142931500Y-81150750I0J-218750D01*
G01*
X142931500Y-81663250D01*
G75*
G02*
X142712750Y-81882000I-218750J0D01*
G01*
X142275250Y-81882000D01*
G75*
G02*
X142056500Y-81663250I0J218750D01*
G01*
G37*
%TD*%
%TO.C,R7*%
G36*
G01*
X130838000Y-85595750D02*
X130838000Y-86108250D01*
G75*
G02*
X130619250Y-86327000I-218750J0D01*
G01*
X130181750Y-86327000D01*
G75*
G02*
X129963000Y-86108250I0J218750D01*
G01*
X129963000Y-85595750D01*
G75*
G02*
X130181750Y-85377000I218750J0D01*
G01*
X130619250Y-85377000D01*
G75*
G02*
X130838000Y-85595750I0J-218750D01*
G01*
G37*
G36*
G01*
X132413000Y-85595750D02*
X132413000Y-86108250D01*
G75*
G02*
X132194250Y-86327000I-218750J0D01*
G01*
X131756750Y-86327000D01*
G75*
G02*
X131538000Y-86108250I0J218750D01*
G01*
X131538000Y-85595750D01*
G75*
G02*
X131756750Y-85377000I218750J0D01*
G01*
X132194250Y-85377000D01*
G75*
G02*
X132413000Y-85595750I0J-218750D01*
G01*
G37*
%TD*%
%TO.C,R8*%
G36*
G01*
X132416000Y-87221350D02*
X132416000Y-87733850D01*
G75*
G02*
X132197250Y-87952600I-218750J0D01*
G01*
X131759750Y-87952600D01*
G75*
G02*
X131541000Y-87733850I0J218750D01*
G01*
X131541000Y-87221350D01*
G75*
G02*
X131759750Y-87002600I218750J0D01*
G01*
X132197250Y-87002600D01*
G75*
G02*
X132416000Y-87221350I0J-218750D01*
G01*
G37*
G36*
G01*
X130841000Y-87221350D02*
X130841000Y-87733850D01*
G75*
G02*
X130622250Y-87952600I-218750J0D01*
G01*
X130184750Y-87952600D01*
G75*
G02*
X129966000Y-87733850I0J218750D01*
G01*
X129966000Y-87221350D01*
G75*
G02*
X130184750Y-87002600I218750J0D01*
G01*
X130622250Y-87002600D01*
G75*
G02*
X130841000Y-87221350I0J-218750D01*
G01*
G37*
%TD*%
%TO.C,R9*%
G36*
G01*
X164081750Y-79420000D02*
X164594250Y-79420000D01*
G75*
G02*
X164813000Y-79638750I0J-218750D01*
G01*
X164813000Y-80076250D01*
G75*
G02*
X164594250Y-80295000I-218750J0D01*
G01*
X164081750Y-80295000D01*
G75*
G02*
X163863000Y-80076250I0J218750D01*
G01*
X163863000Y-79638750D01*
G75*
G02*
X164081750Y-79420000I218750J0D01*
G01*
G37*
G36*
G01*
X164081750Y-80995000D02*
X164594250Y-80995000D01*
G75*
G02*
X164813000Y-81213750I0J-218750D01*
G01*
X164813000Y-81651250D01*
G75*
G02*
X164594250Y-81870000I-218750J0D01*
G01*
X164081750Y-81870000D01*
G75*
G02*
X163863000Y-81651250I0J218750D01*
G01*
X163863000Y-81213750D01*
G75*
G02*
X164081750Y-80995000I218750J0D01*
G01*
G37*
%TD*%
%TO.C,R10*%
G36*
G01*
X156461750Y-80995000D02*
X156974250Y-80995000D01*
G75*
G02*
X157193000Y-81213750I0J-218750D01*
G01*
X157193000Y-81651250D01*
G75*
G02*
X156974250Y-81870000I-218750J0D01*
G01*
X156461750Y-81870000D01*
G75*
G02*
X156243000Y-81651250I0J218750D01*
G01*
X156243000Y-81213750D01*
G75*
G02*
X156461750Y-80995000I218750J0D01*
G01*
G37*
G36*
G01*
X156461750Y-79420000D02*
X156974250Y-79420000D01*
G75*
G02*
X157193000Y-79638750I0J-218750D01*
G01*
X157193000Y-80076250D01*
G75*
G02*
X156974250Y-80295000I-218750J0D01*
G01*
X156461750Y-80295000D01*
G75*
G02*
X156243000Y-80076250I0J218750D01*
G01*
X156243000Y-79638750D01*
G75*
G02*
X156461750Y-79420000I218750J0D01*
G01*
G37*
%TD*%
%TO.C,R11*%
G36*
G01*
X152397750Y-79420000D02*
X152910250Y-79420000D01*
G75*
G02*
X153129000Y-79638750I0J-218750D01*
G01*
X153129000Y-80076250D01*
G75*
G02*
X152910250Y-80295000I-218750J0D01*
G01*
X152397750Y-80295000D01*
G75*
G02*
X152179000Y-80076250I0J218750D01*
G01*
X152179000Y-79638750D01*
G75*
G02*
X152397750Y-79420000I218750J0D01*
G01*
G37*
G36*
G01*
X152397750Y-80995000D02*
X152910250Y-80995000D01*
G75*
G02*
X153129000Y-81213750I0J-218750D01*
G01*
X153129000Y-81651250D01*
G75*
G02*
X152910250Y-81870000I-218750J0D01*
G01*
X152397750Y-81870000D01*
G75*
G02*
X152179000Y-81651250I0J218750D01*
G01*
X152179000Y-81213750D01*
G75*
G02*
X152397750Y-80995000I218750J0D01*
G01*
G37*
%TD*%
%TO.C,R12*%
G36*
G01*
X159001750Y-80995000D02*
X159514250Y-80995000D01*
G75*
G02*
X159733000Y-81213750I0J-218750D01*
G01*
X159733000Y-81651250D01*
G75*
G02*
X159514250Y-81870000I-218750J0D01*
G01*
X159001750Y-81870000D01*
G75*
G02*
X158783000Y-81651250I0J218750D01*
G01*
X158783000Y-81213750D01*
G75*
G02*
X159001750Y-80995000I218750J0D01*
G01*
G37*
G36*
G01*
X159001750Y-79420000D02*
X159514250Y-79420000D01*
G75*
G02*
X159733000Y-79638750I0J-218750D01*
G01*
X159733000Y-80076250D01*
G75*
G02*
X159514250Y-80295000I-218750J0D01*
G01*
X159001750Y-80295000D01*
G75*
G02*
X158783000Y-80076250I0J218750D01*
G01*
X158783000Y-79638750D01*
G75*
G02*
X159001750Y-79420000I218750J0D01*
G01*
G37*
%TD*%
%TO.C,R13*%
G36*
G01*
X161541750Y-117774000D02*
X162054250Y-117774000D01*
G75*
G02*
X162273000Y-117992750I0J-218750D01*
G01*
X162273000Y-118430250D01*
G75*
G02*
X162054250Y-118649000I-218750J0D01*
G01*
X161541750Y-118649000D01*
G75*
G02*
X161323000Y-118430250I0J218750D01*
G01*
X161323000Y-117992750D01*
G75*
G02*
X161541750Y-117774000I218750J0D01*
G01*
G37*
G36*
G01*
X161541750Y-119349000D02*
X162054250Y-119349000D01*
G75*
G02*
X162273000Y-119567750I0J-218750D01*
G01*
X162273000Y-120005250D01*
G75*
G02*
X162054250Y-120224000I-218750J0D01*
G01*
X161541750Y-120224000D01*
G75*
G02*
X161323000Y-120005250I0J218750D01*
G01*
X161323000Y-119567750D01*
G75*
G02*
X161541750Y-119349000I218750J0D01*
G01*
G37*
%TD*%
%TO.C,R14*%
G36*
G01*
X166621750Y-80995000D02*
X167134250Y-80995000D01*
G75*
G02*
X167353000Y-81213750I0J-218750D01*
G01*
X167353000Y-81651250D01*
G75*
G02*
X167134250Y-81870000I-218750J0D01*
G01*
X166621750Y-81870000D01*
G75*
G02*
X166403000Y-81651250I0J218750D01*
G01*
X166403000Y-81213750D01*
G75*
G02*
X166621750Y-80995000I218750J0D01*
G01*
G37*
G36*
G01*
X166621750Y-79420000D02*
X167134250Y-79420000D01*
G75*
G02*
X167353000Y-79638750I0J-218750D01*
G01*
X167353000Y-80076250D01*
G75*
G02*
X167134250Y-80295000I-218750J0D01*
G01*
X166621750Y-80295000D01*
G75*
G02*
X166403000Y-80076250I0J218750D01*
G01*
X166403000Y-79638750D01*
G75*
G02*
X166621750Y-79420000I218750J0D01*
G01*
G37*
%TD*%
%TO.C,R15*%
G36*
G01*
X169161750Y-80995000D02*
X169674250Y-80995000D01*
G75*
G02*
X169893000Y-81213750I0J-218750D01*
G01*
X169893000Y-81651250D01*
G75*
G02*
X169674250Y-81870000I-218750J0D01*
G01*
X169161750Y-81870000D01*
G75*
G02*
X168943000Y-81651250I0J218750D01*
G01*
X168943000Y-81213750D01*
G75*
G02*
X169161750Y-80995000I218750J0D01*
G01*
G37*
G36*
G01*
X169161750Y-79420000D02*
X169674250Y-79420000D01*
G75*
G02*
X169893000Y-79638750I0J-218750D01*
G01*
X169893000Y-80076250D01*
G75*
G02*
X169674250Y-80295000I-218750J0D01*
G01*
X169161750Y-80295000D01*
G75*
G02*
X168943000Y-80076250I0J218750D01*
G01*
X168943000Y-79638750D01*
G75*
G02*
X169161750Y-79420000I218750J0D01*
G01*
G37*
%TD*%
%TO.C,R16*%
G36*
G01*
X161541750Y-79420000D02*
X162054250Y-79420000D01*
G75*
G02*
X162273000Y-79638750I0J-218750D01*
G01*
X162273000Y-80076250D01*
G75*
G02*
X162054250Y-80295000I-218750J0D01*
G01*
X161541750Y-80295000D01*
G75*
G02*
X161323000Y-80076250I0J218750D01*
G01*
X161323000Y-79638750D01*
G75*
G02*
X161541750Y-79420000I218750J0D01*
G01*
G37*
G36*
G01*
X161541750Y-80995000D02*
X162054250Y-80995000D01*
G75*
G02*
X162273000Y-81213750I0J-218750D01*
G01*
X162273000Y-81651250D01*
G75*
G02*
X162054250Y-81870000I-218750J0D01*
G01*
X161541750Y-81870000D01*
G75*
G02*
X161323000Y-81651250I0J218750D01*
G01*
X161323000Y-81213750D01*
G75*
G02*
X161541750Y-80995000I218750J0D01*
G01*
G37*
%TD*%
%TO.C,R17*%
G36*
G01*
X125064000Y-79885250D02*
X125064000Y-79372750D01*
G75*
G02*
X125282750Y-79154000I218750J0D01*
G01*
X125720250Y-79154000D01*
G75*
G02*
X125939000Y-79372750I0J-218750D01*
G01*
X125939000Y-79885250D01*
G75*
G02*
X125720250Y-80104000I-218750J0D01*
G01*
X125282750Y-80104000D01*
G75*
G02*
X125064000Y-79885250I0J218750D01*
G01*
G37*
G36*
G01*
X123489000Y-79885250D02*
X123489000Y-79372750D01*
G75*
G02*
X123707750Y-79154000I218750J0D01*
G01*
X124145250Y-79154000D01*
G75*
G02*
X124364000Y-79372750I0J-218750D01*
G01*
X124364000Y-79885250D01*
G75*
G02*
X124145250Y-80104000I-218750J0D01*
G01*
X123707750Y-80104000D01*
G75*
G02*
X123489000Y-79885250I0J218750D01*
G01*
G37*
%TD*%
M02*
