M48
; DRILL file {KiCad (5.1.9)-1} date 05/11/21 09:52:32
; FORMAT={-:-/ absolute / inch / decimal}
; #@! TF.CreationDate,2021-05-11T09:52:32+02:00
; #@! TF.GenerationSoftware,Kicad,Pcbnew,(5.1.9)-1
; #@! TF.FileFunction,Plated,1,2,PTH
FMAT,2
INCH
T1C0.0118
T2C0.0157
T3C0.0197
T4C0.0256
T5C0.0400
T6C0.0512
%
G90
G05
T1
X4.9094Y-3.9346
X4.9094Y-3.9839
X4.9586Y-3.8963
X4.9586Y-3.9346
X4.9586Y-3.9839
X4.9586Y-4.0222
X5.0117Y-3.8963
X5.0117Y-3.9346
X5.0117Y-3.9839
X5.0117Y-4.0222
X5.0649Y-3.8963
X5.0649Y-3.9346
X5.0649Y-3.9839
X5.0649Y-4.0222
X5.1141Y-3.9346
X5.1141Y-3.9839
T2
X4.7892Y-4.3046
X4.7892Y-4.4131
X4.7892Y-4.5215
X4.8275Y-4.3225
X4.8275Y-4.43
X4.8275Y-4.56
X4.89Y-4.23
X4.9231Y-4.0925
X4.9507Y-4.26
X4.9822Y-4.1245
X5.21Y-3.9494
X5.23Y-3.9225
X5.23Y-3.975
X5.25Y-4.0
X5.27Y-4.025
X5.288Y-3.6924
X5.288Y-3.779
X5.288Y-3.841
X5.288Y-3.88
X5.29Y-4.05
X5.375Y-3.38
X5.51Y-4.015
X5.5475Y-4.1245
X5.548Y-3.779
X5.61Y-4.045
X5.71Y-4.015
X5.87Y-3.6924
X5.87Y-4.175
X6.01Y-3.88
X6.17Y-3.9225
X6.245Y-3.5775
X6.245Y-3.975
X6.27Y-3.841
X6.305Y-3.9494
X6.34Y-3.38
X6.34Y-4.55
X6.37Y-4.23
X6.4326Y-3.6924
X6.4326Y-3.779
X6.47Y-3.5775
X6.47Y-4.55
X6.57Y-3.2444
X6.69Y-4.0925
X6.745Y-3.2444
X6.745Y-4.26
T3
X4.5727Y-4.2604
X4.5727Y-4.3096
X4.5727Y-4.3589
X4.5727Y-4.4081
X4.5727Y-4.4573
X4.5727Y-4.5065
X4.5727Y-4.5557
X4.5727Y-4.6049
T4
X4.7137Y-4.175
X4.7637Y-4.175
X4.8137Y-4.175
X5.87Y-4.6594
X5.87Y-4.7094
T5
X5.11Y-2.975
X5.21Y-2.975
X5.31Y-2.975
X5.41Y-2.975
X5.47Y-4.875
X5.51Y-2.975
X5.57Y-4.875
X5.61Y-2.975
X5.67Y-4.875
X5.71Y-2.975
X5.77Y-4.875
X5.81Y-2.975
X5.87Y-4.875
X5.91Y-2.975
X5.97Y-4.875
X6.01Y-2.975
X6.07Y-4.875
X6.17Y-2.975
X6.17Y-4.875
X6.27Y-2.975
X6.37Y-2.975
X6.37Y-4.875
X6.47Y-2.975
X6.47Y-4.875
X6.57Y-2.975
X6.57Y-4.875
X6.67Y-2.975
X6.67Y-4.875
X6.77Y-2.975
X6.77Y-4.875
X6.87Y-2.975
X6.87Y-4.875
T6
X4.5525Y-3.6049
X4.5525Y-3.7049
X4.5525Y-3.8593
X4.5525Y-3.9593
X4.5525Y-4.0593
T0
M30
